<?xml version="1.0" encoding="UTF-8"?>
<svg xmlns="http://www.w3.org/2000/svg" xmlns:xlink="http://www.w3.org/1999/xlink" width="64px" height="64px" viewBox="0 0 64 64" version="1.1">
<g id="surface1">
<path style=" stroke:none;fill-rule:nonzero;fill:rgb(95.294118%,55.686275%,47.843137%);fill-opacity:1;" d="M 48.699219 13.359375 L 32.96875 8.160156 C 32.339844 7.949219 31.660156 7.949219 31.039062 8.160156 L 15.308594 13.359375 C 14.050781 13.78125 13.199219 14.960938 13.199219 16.28125 L 13.199219 35.878906 C 13.199219 39.980469 15.089844 43.859375 18.320312 46.390625 L 29.480469 55.121094 C 30.96875 56.28125 33.050781 56.28125 34.539062 55.121094 L 45.699219 46.390625 C 48.929688 43.859375 50.820312 39.980469 50.820312 35.878906 L 50.820312 16.28125 C 50.808594 14.960938 49.960938 13.78125 48.699219 13.359375 Z M 48.699219 13.359375 "/>
<path style=" stroke:none;fill-rule:nonzero;fill:rgb(95.294118%,55.686275%,47.843137%);fill-opacity:1;" d="M 32 12.050781 L 17.191406 16.949219 L 17.191406 31.019531 L 32 31.019531 Z M 32 12.050781 "/>
<path style=" stroke:none;fill-rule:nonzero;fill:rgb(100%,100%,100%);fill-opacity:1;" d="M 46.808594 31.019531 L 46.808594 16.949219 L 32 12.050781 L 32 31.019531 Z M 46.808594 31.019531 "/>
<path style=" stroke:none;fill-rule:nonzero;fill:rgb(100%,100%,100%);fill-opacity:1;" d="M 17.191406 31.019531 L 17.191406 35.878906 C 17.191406 38.769531 18.5 41.460938 20.78125 43.238281 L 31.941406 51.96875 C 31.941406 51.980469 31.960938 52 32 52 L 32 31.019531 Z M 17.191406 31.019531 "/>
<path style=" stroke:none;fill-rule:nonzero;fill:rgb(95.294118%,55.686275%,47.843137%);fill-opacity:1;" d="M 32 31.019531 L 32 52 L 32.058594 51.980469 L 43.21875 43.25 C 45.5 41.46875 46.808594 38.78125 46.808594 35.890625 L 46.808594 31.03125 L 32 31.03125 Z M 32 31.019531 "/>
</g>
</svg>
