<?xml version="1.0" encoding="UTF-8"?>
<svg xmlns="http://www.w3.org/2000/svg" xmlns:xlink="http://www.w3.org/1999/xlink" width="64px" height="64px" viewBox="0 0 64 64" version="1.1">
<g id="surface1">
<path style=" stroke:none;fill-rule:nonzero;fill:rgb(0%,0%,0%);fill-opacity:1;" d="M 52.953125 28 C 52.992188 16.464844 43.691406 7.074219 32.160156 7 C 32.105469 7 32.050781 7 32 7 C 20.414062 7.015625 11.035156 16.417969 11.050781 28 C 11.050781 36.359375 9.355469 41.035156 7.933594 43.480469 C 7.035156 45.03125 7.027344 46.941406 7.917969 48.496094 C 8.800781 50.054688 10.457031 51.011719 12.246094 51 L 21.046875 51 C 21.5625 56.664062 26.3125 61 32 61 C 37.6875 61 42.4375 56.664062 42.953125 51 L 51.753906 51 C 53.542969 51.011719 55.199219 50.054688 56.078125 48.5 C 56.972656 46.945312 56.964844 45.03125 56.070312 43.484375 C 54.644531 41.035156 52.953125 36.363281 52.953125 28 Z M 32 55 C 29.625 54.996094 27.578125 53.328125 27.101562 51 L 36.898438 51 C 36.421875 53.328125 34.375 54.996094 32 55 Z M 13.910156 45 C 16.480469 39.613281 17.050781 32.886719 17.050781 28 C 17.035156 19.730469 23.730469 13.015625 32 13 C 32.039062 13 32.078125 13 32.113281 13 C 40.351562 13.050781 46.992188 19.761719 46.953125 28 C 46.953125 32.886719 47.519531 39.613281 50.09375 45 Z M 58.457031 18.335938 C 57.746094 18.6875 56.921875 18.742188 56.167969 18.484375 C 55.414062 18.226562 54.792969 17.683594 54.441406 16.96875 C 52.394531 12.816406 49.238281 9.3125 45.324219 6.839844 C 44.414062 6.269531 43.882812 5.257812 43.921875 4.1875 C 43.964844 3.113281 44.578125 2.144531 45.527344 1.648438 C 46.476562 1.148438 47.617188 1.195312 48.523438 1.765625 C 53.378906 4.828125 57.289062 9.171875 59.824219 14.316406 C 60.554688 15.804688 59.945312 17.601562 58.457031 18.335938 Z M 6.863281 18.644531 C 5.828125 18.644531 4.867188 18.105469 4.320312 17.226562 C 3.773438 16.347656 3.71875 15.246094 4.175781 14.316406 C 6.710938 9.171875 10.621094 4.828125 15.476562 1.765625 C 16.382812 1.195312 17.523438 1.148438 18.472656 1.648438 C 19.421875 2.144531 20.035156 3.113281 20.078125 4.1875 C 20.117188 5.257812 19.585938 6.269531 18.675781 6.839844 C 14.761719 9.3125 11.605469 12.816406 9.558594 16.96875 C 9.054688 17.996094 8.007812 18.644531 6.863281 18.644531 Z M 6.863281 18.644531 "/>
</g>
</svg>
