<?xml version="1.0" encoding="UTF-8"?>
<svg xmlns="http://www.w3.org/2000/svg" xmlns:xlink="http://www.w3.org/1999/xlink" width="45px" height="45px" viewBox="0 0 45 45" version="1.1">
<g id="surface1">
<path style=" stroke:none;fill-rule:nonzero;fill:rgb(0%,0%,0%);fill-opacity:1;" d="M 44.984375 25.945312 C 44.921875 25.332031 44.695312 24.757812 44.328125 24.273438 C 44.589844 23.726562 44.695312 23.117188 44.636719 22.507812 C 44.449219 20.667969 42.800781 19.324219 40.960938 19.507812 C 39.398438 19.667969 38.195312 20.878906 37.980469 22.371094 L 33.847656 22.789062 C 33.070312 21.90625 31.941406 21.347656 30.6875 21.320312 L 30.476562 21.316406 C 30.117188 20.742188 29.722656 20.1875 29.296875 19.660156 L 33.03125 18.089844 C 33.394531 18.574219 33.878906 18.953125 34.453125 19.1875 C 34.863281 19.351562 35.289062 19.4375 35.71875 19.4375 C 36.160156 19.4375 36.601562 19.347656 37.019531 19.171875 C 38.722656 18.453125 39.523438 16.484375 38.808594 14.78125 C 38.570312 14.214844 38.183594 13.730469 37.695312 13.375 C 37.78125 12.777344 37.707031 12.164062 37.46875 11.597656 C 37.121094 10.773438 36.472656 10.132812 35.644531 9.792969 C 34.8125 9.457031 33.902344 9.460938 33.078125 9.808594 C 31.628906 10.417969 30.835938 11.929688 31.066406 13.417969 L 27.242188 15.027344 C 26.214844 14.402344 24.957031 14.222656 23.789062 14.550781 L 22.859375 14.816406 C 20.8125 13.953125 18.648438 13.511719 16.414062 13.511719 C 14.070312 13.511719 11.828125 14.003906 9.785156 14.894531 L 9.679688 10.839844 C 9.667969 10.464844 9.398438 10.144531 9.027344 10.070312 C 8.65625 10 8.285156 10.195312 8.132812 10.539062 L 7.902344 11.070312 C 7.515625 11.953125 6.960938 12.730469 6.253906 13.378906 C 5.542969 14.03125 4.722656 14.515625 3.808594 14.820312 C 3.015625 15.085938 2.398438 15.6875 2.113281 16.476562 C 1.824219 17.261719 1.914062 18.121094 2.351562 18.832031 L 3.15625 20.144531 C 1.660156 22.140625 0.59375 24.496094 0.117188 27.085938 C 0.0390625 27.511719 0 27.949219 0 28.378906 C 0 32.28125 3.179688 35.457031 7.089844 35.457031 L 25.742188 35.457031 C 27.546875 35.457031 29.261719 34.78125 30.574219 33.550781 C 31.75 32.453125 32.511719 31.003906 32.75 29.433594 C 33.425781 29.050781 33.976562 28.492188 34.359375 27.828125 L 38.492188 27.410156 C 38.695312 27.980469 39.046875 28.484375 39.527344 28.878906 C 40.132812 29.371094 40.871094 29.632812 41.640625 29.632812 C 41.753906 29.632812 41.871094 29.628906 41.984375 29.617188 C 42.875 29.527344 43.679688 29.09375 44.246094 28.402344 C 44.8125 27.707031 45.074219 26.835938 44.984375 25.945312 Z M 33.703125 11.296875 C 33.921875 11.203125 34.148438 11.15625 34.378906 11.15625 C 34.601562 11.15625 34.824219 11.203125 35.035156 11.289062 C 35.464844 11.464844 35.800781 11.796875 35.980469 12.222656 C 36.152344 12.625 36.160156 13.074219 36.011719 13.492188 C 35.867188 13.886719 36.050781 14.328125 36.433594 14.5 C 36.835938 14.683594 37.152344 15.003906 37.320312 15.40625 C 37.691406 16.289062 37.277344 17.3125 36.394531 17.683594 C 35.964844 17.863281 35.492188 17.867188 35.0625 17.691406 C 34.632812 17.515625 34.296875 17.183594 34.117188 16.757812 C 33.945312 16.355469 33.9375 15.902344 34.085938 15.488281 C 34.230469 15.09375 34.046875 14.652344 33.660156 14.480469 C 33.257812 14.296875 32.945312 13.976562 32.777344 13.574219 C 32.402344 12.6875 32.820312 11.667969 33.703125 11.296875 Z M 32.410156 16.601562 L 29.242188 17.933594 C 29.183594 17.632812 29.097656 17.335938 28.976562 17.046875 C 28.855469 16.761719 28.703125 16.488281 28.527344 16.238281 L 31.695312 14.902344 C 31.894531 15.171875 32.132812 15.40625 32.402344 15.605469 C 32.355469 15.933594 32.359375 16.269531 32.410156 16.601562 Z M 27.488281 17.671875 C 27.507812 17.714844 27.523438 17.757812 27.539062 17.804688 C 27.371094 17.648438 27.195312 17.5 27.019531 17.351562 C 26.429688 16.859375 25.808594 16.414062 25.160156 16.007812 C 25.699219 16.046875 26.21875 16.242188 26.652344 16.578125 C 27.019531 16.863281 27.308594 17.242188 27.488281 17.671875 Z M 3.726562 17.992188 C 3.546875 17.699219 3.511719 17.347656 3.628906 17.027344 C 3.746094 16.703125 3.996094 16.457031 4.320312 16.351562 C 5.449219 15.972656 6.464844 15.375 7.34375 14.570312 C 7.628906 14.308594 7.894531 14.027344 8.140625 13.730469 L 8.195312 15.695312 C 6.726562 16.535156 5.394531 17.597656 4.246094 18.835938 Z M 25.742188 33.84375 L 7.089844 33.84375 C 4.070312 33.84375 1.613281 31.390625 1.613281 28.378906 C 1.613281 28.046875 1.644531 27.710938 1.703125 27.378906 C 3.011719 20.277344 9.199219 15.125 16.414062 15.125 C 18.519531 15.125 20.558594 15.558594 22.476562 16.40625 C 23.742188 16.96875 24.921875 17.703125 25.988281 18.589844 C 26.617188 19.113281 27.207031 19.695312 27.738281 20.3125 C 28.007812 20.621094 28.261719 20.941406 28.503906 21.273438 L 22.148438 21.140625 C 20.609375 21.105469 19.121094 21.738281 18.074219 22.871094 C 17.027344 24.003906 16.515625 25.535156 16.671875 27.070312 C 16.828125 28.605469 17.632812 30.003906 18.886719 30.90625 C 19.8125 31.570312 20.917969 31.921875 22.035156 31.921875 C 22.433594 31.921875 22.832031 31.875 23.226562 31.785156 L 30.957031 30.035156 C 30.242188 32.246094 28.148438 33.84375 25.742188 33.84375 Z M 31.199219 28.324219 L 22.871094 30.214844 C 21.816406 30.453125 20.707031 30.226562 19.828125 29.597656 C 18.949219 28.964844 18.386719 27.984375 18.277344 26.910156 C 18.167969 25.832031 18.527344 24.761719 19.257812 23.964844 C 19.976562 23.191406 20.984375 22.75 22.035156 22.75 C 22.0625 22.75 22.089844 22.75 22.117188 22.75 L 30.65625 22.933594 C 32.03125 22.960938 33.175781 24.019531 33.3125 25.386719 C 33.453125 26.757812 32.542969 28.019531 31.199219 28.324219 Z M 34.917969 25.226562 C 34.886719 24.910156 34.820312 24.609375 34.726562 24.320312 L 38.144531 23.972656 C 38.257812 24.289062 38.417969 24.582031 38.617188 24.851562 C 38.472656 25.152344 38.378906 25.476562 38.332031 25.804688 L 34.910156 26.152344 C 34.945312 25.847656 34.949219 25.539062 34.917969 25.226562 Z M 42.996094 27.378906 C 42.699219 27.742188 42.285156 27.964844 41.824219 28.011719 C 41.359375 28.058594 40.90625 27.921875 40.546875 27.628906 C 40.1875 27.335938 39.964844 26.917969 39.917969 26.457031 C 39.875 26.019531 39.996094 25.589844 40.261719 25.234375 C 40.515625 24.898438 40.46875 24.425781 40.152344 24.144531 C 39.820312 23.855469 39.613281 23.453125 39.570312 23.019531 C 39.472656 22.066406 40.171875 21.210938 41.125 21.113281 C 41.183594 21.109375 41.242188 21.105469 41.300781 21.105469 C 42.183594 21.105469 42.9375 21.773438 43.03125 22.667969 C 43.074219 23.105469 42.953125 23.535156 42.6875 23.890625 C 42.433594 24.226562 42.480469 24.699219 42.796875 24.980469 C 43.128906 25.269531 43.332031 25.671875 43.378906 26.105469 C 43.425781 26.566406 43.289062 27.019531 42.996094 27.378906 Z M 42.996094 27.378906 "/>
<path style=" stroke:none;fill-rule:nonzero;fill:rgb(0%,0%,0%);fill-opacity:1;" d="M 14.1875 24.121094 L 13.609375 24.15625 C 11.683594 24.269531 9.789062 23.5625 8.410156 22.210938 C 7.8125 21.625 6.992188 21.347656 6.164062 21.449219 C 5.335938 21.550781 4.609375 22.019531 4.171875 22.734375 L 2.519531 25.4375 C 2.285156 25.816406 2.40625 26.3125 2.785156 26.542969 C 3.167969 26.777344 3.664062 26.65625 3.894531 26.277344 L 5.546875 23.574219 C 5.726562 23.285156 6.023438 23.09375 6.363281 23.050781 C 6.703125 23.007812 7.035156 23.121094 7.28125 23.359375 C 8.414062 24.472656 9.828125 25.234375 11.351562 25.574219 L 9.25 26.71875 C 9.085938 26.804688 8.882812 26.773438 8.75 26.644531 C 8.242188 26.132812 7.519531 25.929688 6.820312 26.105469 C 6.117188 26.28125 5.574219 26.796875 5.367188 27.488281 L 4.992188 28.722656 C 4.863281 29.148438 5.105469 29.601562 5.535156 29.726562 C 5.609375 29.75 5.6875 29.761719 5.765625 29.761719 C 6.113281 29.761719 6.433594 29.539062 6.539062 29.1875 L 6.910156 27.953125 C 6.972656 27.75 7.140625 27.6875 7.210938 27.667969 C 7.277344 27.652344 7.457031 27.628906 7.609375 27.78125 C 8.238281 28.417969 9.230469 28.5625 10.019531 28.132812 L 14.621094 25.632812 C 14.953125 25.453125 15.113281 25.066406 15.011719 24.703125 C 14.90625 24.339844 14.566406 24.097656 14.1875 24.121094 Z M 14.1875 24.121094 "/>
</g>
</svg>
