<?xml version="1.0" encoding="UTF-8"?>
<svg xmlns="http://www.w3.org/2000/svg" xmlns:xlink="http://www.w3.org/1999/xlink" width="64px" height="64px" viewBox="0 0 64 64" version="1.1">
<g id="surface1">
<path style=" stroke:none;fill-rule:nonzero;fill:rgb(0%,0%,0%);fill-opacity:1;" d="M 32 0 C 14.3125 0 0 14.3125 0 32 C 0 49.6875 14.3125 64 32 64 C 49.6875 64 64 49.6875 64 32 C 64 14.3125 49.6875 0 32 0 Z M 33.578125 33.324219 L 24.855469 43.695312 C 24.121094 44.566406 22.820312 44.679688 21.953125 43.945312 C 21.082031 43.214844 20.96875 41.914062 21.699219 41.042969 L 29.941406 31.25 L 29.941406 7.96875 C 29.941406 6.832031 30.863281 5.910156 32 5.910156 C 33.136719 5.910156 34.058594 6.832031 34.058594 7.96875 L 34.058594 32 C 34.058594 32.484375 33.890625 32.953125 33.578125 33.324219 Z M 33.578125 33.324219 "/>
</g>
</svg>
