<?xml version="1.0" encoding="UTF-8"?>
<svg xmlns="http://www.w3.org/2000/svg" xmlns:xlink="http://www.w3.org/1999/xlink" width="64px" height="64px" viewBox="0 0 64 64" version="1.1">
<g id="surface1">
<path style=" stroke:none;fill-rule:nonzero;fill:rgb(16.078431%,83.921569%,88.627451%);fill-opacity:1;" d="M 61.667969 20.109375 C 60.515625 21.726562 59.4375 23.339844 58.253906 24.867188 C 56.054688 27.699219 53.820312 30.503906 51.546875 33.273438 C 48.945312 36.433594 46.289062 39.546875 43.652344 42.675781 C 41.984375 44.652344 40.3125 46.632812 38.625 48.59375 C 37.625 49.753906 36.5625 50.863281 35.574219 52.03125 C 34.328125 53.496094 33.132812 55.003906 31.914062 56.496094 C 31.847656 56.574219 31.761719 56.636719 31.578125 56.800781 C 31.578125 56.367188 31.492188 56.007812 31.589844 55.714844 C 33.648438 49.730469 35.691406 43.738281 37.8125 37.777344 C 39.742188 32.347656 41.777344 26.953125 43.730469 21.527344 C 44.273438 20.019531 44.203125 20.105469 45.816406 20.207031 C 47.554688 20.316406 49.308594 20.1875 51.054688 20.191406 C 52.140625 20.191406 53.21875 20.273438 54.300781 20.257812 C 56.699219 20.230469 59.101562 20.164062 61.667969 20.109375 Z M 61.667969 20.109375 "/>
<path style=" stroke:none;fill-rule:nonzero;fill:rgb(39.607843%,74.901961%,72.941176%);fill-opacity:1;" d="M 54.058594 7.144531 C 56.597656 11.105469 58.78125 15.109375 62.265625 18.417969 C 56.433594 19.304688 50.878906 19.125 45.140625 18.792969 C 48.582031 15.234375 51.566406 11.542969 54.058594 7.144531 Z M 54.058594 7.144531 "/>
<path style=" stroke:none;fill-rule:nonzero;fill:rgb(53.72549%,100%,100%);fill-opacity:1;" d="M 53.019531 6.21875 C 52.746094 6.777344 52.539062 7.28125 52.257812 7.742188 C 49.90625 11.613281 47.089844 15.113281 43.875 18.300781 C 43.378906 18.792969 43 18.539062 42.65625 18.234375 C 41.351562 17.074219 39.949219 15.992188 38.828125 14.675781 C 36.519531 11.972656 34.375 9.132812 32.160156 6.347656 C 32.203125 6.265625 32.242188 6.183594 32.285156 6.101562 C 33.03125 6.101562 33.777344 6.09375 34.523438 6.105469 C 37.882812 6.15625 41.246094 6.238281 44.609375 6.257812 C 45.472656 6.265625 46.335938 6.089844 47.195312 6 C 47.300781 5.988281 47.40625 5.953125 47.511719 5.957031 C 49.289062 6.039062 51.066406 6.125 53.019531 6.21875 Z M 53.019531 6.21875 "/>
<path style=" stroke:none;fill-rule:nonzero;fill:rgb(53.72549%,100%,100%);fill-opacity:1;" d="M 42.972656 20.253906 C 40.878906 25.90625 38.800781 31.425781 36.796875 36.972656 C 34.78125 42.535156 32.835938 48.121094 30.894531 53.605469 C 29.972656 50.71875 28.855469 47.8125 28.132812 44.816406 C 26.523438 38.152344 24.554688 31.601562 22.496094 25.070312 C 21.945312 23.324219 21.292969 21.609375 20.703125 19.917969 C 23.296875 19.917969 25.929688 19.902344 28.5625 19.925781 C 29.375 19.933594 30.191406 20.085938 31.007812 20.117188 C 33.914062 20.234375 36.820312 20.351562 39.730469 20.417969 C 40.726562 20.441406 41.730469 20.324219 42.972656 20.253906 Z M 29.746094 29.183594 C 29.632812 29.117188 29.519531 29.054688 29.402344 28.988281 C 28.648438 30.285156 27.890625 31.582031 27.132812 32.875 C 27.246094 32.941406 27.359375 33.011719 27.472656 33.074219 C 28.476562 31.917969 29.289062 30.652344 29.746094 29.183594 Z M 27.445312 36.238281 C 28.015625 35.28125 28.585938 34.328125 29.15625 33.371094 C 29.078125 33.324219 29 33.277344 28.921875 33.230469 C 28.144531 34.0625 27.402344 34.914062 27.175781 36.074219 C 27.265625 36.128906 27.355469 36.183594 27.445312 36.238281 Z M 29.007812 26.117188 C 28.941406 26.070312 28.875 26.023438 28.808594 25.976562 C 27.664062 26.886719 26.082031 29.789062 26.464844 30.621094 C 27.351562 29.050781 28.179688 27.582031 29.007812 26.117188 Z M 29.007812 26.117188 "/>
<path style=" stroke:none;fill-rule:nonzero;fill:rgb(39.607843%,52.54902%,88.627451%);fill-opacity:1;" d="M 31.363281 6.714844 C 34.351562 11.175781 37.261719 15.445312 41.339844 18.902344 C 34.789062 18.648438 28.238281 18.394531 21.667969 18.136719 C 24.84375 14.394531 28.046875 10.621094 31.363281 6.714844 Z M 31.363281 6.714844 "/>
<path style=" stroke:none;fill-rule:nonzero;fill:rgb(16.078431%,67.058824%,88.627451%);fill-opacity:1;" d="M 30.273438 55.96875 C 30.152344 56.035156 30.03125 56.105469 29.910156 56.171875 C 28.539062 54.546875 27.070312 52.996094 25.824219 51.28125 C 24.351562 49.265625 23.054688 47.121094 21.726562 45.003906 C 21.585938 44.78125 21.625 44.351562 21.738281 44.082031 C 22.179688 43.027344 22.683594 42.003906 23.164062 40.964844 C 23.054688 40.910156 22.949219 40.851562 22.84375 40.796875 C 22.265625 41.816406 21.6875 42.839844 21.0625 43.949219 C 20.542969 43.148438 20.035156 42.421875 19.597656 41.652344 C 19.5 41.484375 19.582031 41.148438 19.683594 40.945312 C 20.261719 39.816406 20.875 38.707031 21.464844 37.585938 C 21.59375 37.339844 21.679688 37.074219 21.789062 36.816406 C 21.730469 36.785156 21.667969 36.75 21.609375 36.714844 C 20.742188 38.074219 19.875 39.429688 18.988281 40.820312 C 18.535156 40.269531 18.070312 39.703125 17.578125 39.109375 C 18.515625 37.488281 19.597656 35.933594 20.15625 34.132812 C 20.0625 34.078125 19.972656 34.027344 19.878906 33.972656 C 18.980469 35.457031 18.085938 36.941406 17.136719 38.503906 C 16.710938 37.894531 16.285156 37.363281 15.949219 36.773438 C 15.847656 36.59375 15.914062 36.222656 16.035156 36.019531 C 16.625 35.019531 17.273438 34.054688 17.863281 33.054688 C 18.09375 32.664062 18.226562 32.210938 18.40625 31.785156 C 18.324219 31.738281 18.242188 31.691406 18.160156 31.648438 C 17.179688 33.035156 16.195312 34.425781 15.21875 35.8125 C 14.828125 35.382812 14.425781 34.925781 14.007812 34.488281 C 13.707031 34.171875 13.828125 33.925781 14.015625 33.59375 C 14.757812 32.265625 15.460938 30.914062 16.171875 29.566406 C 16.25 29.417969 16.28125 29.242188 16.335938 29.074219 C 16.273438 29.042969 16.210938 29.015625 16.144531 28.984375 C 15.203125 30.492188 14.261719 32 13.265625 33.597656 C 12.945312 33.164062 12.648438 32.765625 12.316406 32.316406 C 13.605469 30.519531 15.191406 28.648438 16.101562 26.363281 C 16.035156 26.320312 15.976562 26.277344 15.914062 26.234375 C 14.566406 28.117188 13.21875 30 11.792969 31.996094 C 11.3125 31.40625 10.839844 30.824219 10.410156 30.292969 C 11.519531 28.359375 12.597656 26.480469 13.671875 24.605469 C 13.574219 24.546875 13.472656 24.484375 13.375 24.425781 C 12.285156 26.15625 11.191406 27.886719 9.992188 29.792969 C 7.359375 26.226562 4.738281 22.679688 2.183594 19.226562 C 7.953125 19.398438 13.734375 19.574219 19.5625 19.753906 C 23.875 31.5625 26.546875 43.917969 30.273438 55.96875 Z M 30.273438 55.96875 "/>
<path style=" stroke:none;fill-rule:nonzero;fill:rgb(16.078431%,83.921569%,88.627451%);fill-opacity:1;" d="M 30.390625 6.195312 C 26.929688 10.195312 23.617188 14.03125 20.222656 17.957031 C 17.296875 14.273438 15.230469 10.390625 13.242188 6.550781 C 18.796875 6.433594 24.476562 6.316406 30.390625 6.195312 Z M 30.390625 6.195312 "/>
<path style=" stroke:none;fill-rule:nonzero;fill:rgb(39.607843%,52.54902%,88.627451%);fill-opacity:1;" d="M 18.828125 18.117188 C 13.484375 18.117188 8.191406 18.117188 2.90625 18.117188 C 6.082031 14.371094 9.203125 10.6875 12.332031 6.992188 C 13.359375 8.957031 14.277344 10.894531 15.355469 12.742188 C 16.425781 14.574219 17.652344 16.3125 18.828125 18.117188 Z M 10.550781 16.785156 C 11.511719 15.398438 12.46875 14.207031 13.132812 12.679688 C 12.109375 12.984375 10.34375 15.726562 10.550781 16.785156 Z M 9.367188 15.222656 C 9.988281 14.269531 10.613281 13.320312 11.234375 12.371094 C 11.171875 12.332031 11.113281 12.292969 11.054688 12.25 C 10.261719 13.097656 9.554688 13.996094 9.066406 15.042969 C 9.167969 15.101562 9.269531 15.164062 9.367188 15.222656 Z M 9.367188 15.222656 "/>
<path style=" stroke:none;fill-rule:nonzero;fill:rgb(0%,0%,0%);fill-opacity:1;" d="M 63.292969 16.574219 C 64.207031 17.6875 64.1875 18.867188 63.507812 20.082031 C 62.144531 22.527344 60.597656 24.839844 58.835938 27.019531 C 56.683594 29.679688 54.683594 32.464844 52.527344 35.121094 C 50.152344 38.050781 47.675781 40.894531 45.238281 43.777344 C 43.652344 45.652344 42.074219 47.53125 40.472656 49.394531 C 39.425781 50.617188 38.316406 51.789062 37.277344 53.023438 C 35.96875 54.574219 34.703125 56.164062 33.417969 57.738281 C 33.167969 58.042969 32.882812 58.324219 32.640625 58.636719 C 31.675781 59.878906 30.621094 59.65625 29.691406 58.679688 C 27.511719 56.386719 25.167969 54.230469 23.445312 51.539062 C 22.765625 50.476562 22.207031 49.339844 21.496094 48.296875 C 19.398438 45.21875 17.339844 42.101562 15.101562 39.125 C 12.617188 35.820312 9.914062 32.683594 7.382812 29.417969 C 5.984375 27.617188 4.734375 25.699219 3.421875 23.832031 C 2.398438 22.367188 1.394531 20.882812 0.359375 19.425781 C -0.148438 18.710938 -0.121094 18.035156 0.457031 17.414062 C 1.871094 15.878906 3.320312 14.371094 4.738281 12.839844 C 6.660156 10.757812 8.582031 8.679688 10.472656 6.570312 C 11.613281 5.296875 13 4.71875 14.695312 4.835938 C 15.039062 4.863281 15.386719 4.839844 15.730469 4.839844 C 15.730469 4.800781 15.730469 4.757812 15.730469 4.71875 C 20.410156 4.652344 25.089844 4.566406 29.769531 4.527344 C 33.183594 4.5 36.597656 4.496094 40.007812 4.550781 C 41.960938 4.582031 43.910156 4.796875 45.863281 4.824219 C 47.683594 4.847656 49.515625 4.824219 51.328125 4.660156 C 53.441406 4.464844 54.953125 5.335938 56.121094 6.976562 C 57.597656 9.050781 59.007812 11.175781 60.511719 13.226562 C 61.371094 14.394531 62.371094 15.453125 63.292969 16.574219 Z M 58.253906 24.867188 C 59.4375 23.339844 60.515625 21.726562 61.667969 20.109375 C 59.101562 20.164062 56.699219 20.230469 54.300781 20.257812 C 53.21875 20.273438 52.140625 20.191406 51.054688 20.191406 C 49.308594 20.1875 47.554688 20.316406 45.816406 20.207031 C 44.203125 20.105469 44.273438 20.019531 43.730469 21.527344 C 41.777344 26.953125 39.742188 32.347656 37.8125 37.777344 C 35.691406 43.738281 33.648438 49.730469 31.589844 55.714844 C 31.492188 56.007812 31.578125 56.367188 31.578125 56.800781 C 31.761719 56.636719 31.847656 56.574219 31.914062 56.496094 C 33.132812 55.003906 34.328125 53.496094 35.574219 52.03125 C 36.5625 50.863281 37.625 49.753906 38.625 48.59375 C 40.3125 46.632812 41.984375 44.652344 43.652344 42.675781 C 46.289062 39.546875 48.945312 36.433594 51.546875 33.273438 C 53.820312 30.503906 56.054688 27.699219 58.253906 24.867188 Z M 62.265625 18.417969 C 58.78125 15.109375 56.597656 11.105469 54.058594 7.144531 C 51.566406 11.542969 48.582031 15.234375 45.140625 18.792969 C 50.878906 19.125 56.433594 19.304688 62.265625 18.417969 Z M 52.257812 7.742188 C 52.539062 7.28125 52.746094 6.777344 53.019531 6.21875 C 51.066406 6.125 49.289062 6.039062 47.511719 5.957031 C 47.40625 5.953125 47.300781 5.988281 47.195312 6 C 46.335938 6.089844 45.472656 6.265625 44.609375 6.257812 C 41.246094 6.238281 37.882812 6.15625 34.523438 6.105469 C 33.777344 6.09375 33.03125 6.101562 32.285156 6.101562 C 32.242188 6.183594 32.203125 6.265625 32.160156 6.347656 C 34.375 9.132812 36.519531 11.972656 38.828125 14.675781 C 39.949219 15.992188 41.351562 17.074219 42.65625 18.234375 C 43 18.539062 43.378906 18.792969 43.875 18.300781 C 47.089844 15.113281 49.90625 11.613281 52.257812 7.742188 Z M 36.796875 36.972656 C 38.800781 31.425781 40.878906 25.90625 42.972656 20.253906 C 41.730469 20.324219 40.726562 20.441406 39.730469 20.417969 C 36.820312 20.351562 33.914062 20.234375 31.007812 20.117188 C 30.191406 20.085938 29.375 19.933594 28.5625 19.925781 C 25.929688 19.902344 23.296875 19.917969 20.703125 19.917969 C 21.292969 21.609375 21.945312 23.324219 22.496094 25.070312 C 24.554688 31.601562 26.523438 38.152344 28.132812 44.816406 C 28.855469 47.8125 29.972656 50.71875 30.894531 53.605469 C 32.835938 48.121094 34.78125 42.535156 36.796875 36.972656 Z M 41.339844 18.902344 C 37.261719 15.445312 34.351562 11.175781 31.363281 6.714844 C 28.046875 10.621094 24.84375 14.394531 21.667969 18.136719 C 28.238281 18.394531 34.789062 18.648438 41.339844 18.902344 Z M 29.910156 56.171875 C 30.03125 56.105469 30.152344 56.035156 30.273438 55.96875 C 26.546875 43.917969 23.875 31.5625 19.5625 19.753906 C 13.734375 19.574219 7.953125 19.398438 2.183594 19.226562 C 4.738281 22.679688 7.359375 26.226562 9.992188 29.792969 C 11.191406 27.886719 12.285156 26.15625 13.375 24.425781 C 13.472656 24.484375 13.574219 24.546875 13.671875 24.605469 C 12.597656 26.480469 11.519531 28.359375 10.410156 30.292969 C 10.839844 30.824219 11.3125 31.40625 11.792969 31.996094 C 13.21875 30 14.566406 28.117188 15.914062 26.234375 C 15.976562 26.277344 16.035156 26.320312 16.101562 26.363281 C 15.191406 28.648438 13.605469 30.519531 12.316406 32.316406 C 12.648438 32.765625 12.945312 33.164062 13.265625 33.597656 C 14.261719 32 15.203125 30.492188 16.144531 28.984375 C 16.210938 29.015625 16.273438 29.042969 16.335938 29.074219 C 16.28125 29.242188 16.25 29.417969 16.171875 29.566406 C 15.460938 30.914062 14.757812 32.265625 14.015625 33.59375 C 13.828125 33.925781 13.707031 34.171875 14.007812 34.488281 C 14.425781 34.925781 14.828125 35.382812 15.21875 35.8125 C 16.195312 34.425781 17.179688 33.035156 18.160156 31.648438 C 18.242188 31.691406 18.324219 31.738281 18.40625 31.785156 C 18.226562 32.210938 18.09375 32.664062 17.863281 33.054688 C 17.273438 34.054688 16.625 35.019531 16.035156 36.019531 C 15.914062 36.222656 15.847656 36.59375 15.949219 36.773438 C 16.285156 37.363281 16.710938 37.894531 17.136719 38.503906 C 18.085938 36.941406 18.980469 35.457031 19.878906 33.972656 C 19.972656 34.027344 20.0625 34.078125 20.15625 34.132812 C 19.597656 35.933594 18.515625 37.488281 17.578125 39.109375 C 18.070312 39.703125 18.535156 40.269531 18.988281 40.820312 C 19.875 39.429688 20.742188 38.074219 21.609375 36.714844 C 21.667969 36.75 21.730469 36.785156 21.789062 36.816406 C 21.679688 37.074219 21.59375 37.339844 21.464844 37.585938 C 20.875 38.707031 20.261719 39.816406 19.683594 40.945312 C 19.582031 41.148438 19.5 41.484375 19.597656 41.652344 C 20.035156 42.421875 20.542969 43.148438 21.0625 43.949219 C 21.6875 42.839844 22.265625 41.816406 22.84375 40.796875 C 22.949219 40.851562 23.054688 40.910156 23.164062 40.964844 C 22.683594 42.003906 22.179688 43.027344 21.738281 44.082031 C 21.625 44.351562 21.585938 44.78125 21.726562 45.003906 C 23.054688 47.121094 24.351562 49.265625 25.824219 51.28125 C 27.070312 52.996094 28.539062 54.546875 29.910156 56.171875 Z M 20.222656 17.957031 C 23.617188 14.03125 26.929688 10.195312 30.390625 6.195312 C 24.476562 6.316406 18.796875 6.433594 13.242188 6.550781 C 15.230469 10.390625 17.296875 14.273438 20.222656 17.957031 Z M 2.90625 18.117188 C 8.191406 18.117188 13.484375 18.117188 18.828125 18.117188 C 17.652344 16.3125 16.425781 14.574219 15.355469 12.742188 C 14.277344 10.894531 13.359375 8.957031 12.332031 6.992188 C 9.203125 10.6875 6.082031 14.371094 2.90625 18.117188 Z M 2.90625 18.117188 "/>
<path style=" stroke:none;fill-rule:nonzero;fill:rgb(0%,0%,0%);fill-opacity:1;" d="M 29.402344 28.988281 C 29.519531 29.054688 29.632812 29.117188 29.746094 29.183594 C 29.289062 30.652344 28.476562 31.917969 27.472656 33.074219 C 27.359375 33.011719 27.246094 32.941406 27.132812 32.875 C 27.890625 31.582031 28.648438 30.285156 29.402344 28.988281 Z M 29.402344 28.988281 "/>
<path style=" stroke:none;fill-rule:nonzero;fill:rgb(0%,0%,0%);fill-opacity:1;" d="M 29.15625 33.371094 C 28.585938 34.328125 28.015625 35.28125 27.445312 36.238281 C 27.355469 36.183594 27.265625 36.128906 27.175781 36.074219 C 27.402344 34.914062 28.144531 34.0625 28.921875 33.230469 C 29 33.277344 29.078125 33.324219 29.15625 33.371094 Z M 29.15625 33.371094 "/>
<path style=" stroke:none;fill-rule:nonzero;fill:rgb(0%,0%,0%);fill-opacity:1;" d="M 28.808594 25.976562 C 28.875 26.023438 28.941406 26.070312 29.007812 26.117188 C 28.179688 27.582031 27.351562 29.050781 26.464844 30.621094 C 26.082031 29.789062 27.664062 26.886719 28.808594 25.976562 Z M 28.808594 25.976562 "/>
<path style=" stroke:none;fill-rule:nonzero;fill:rgb(0%,0%,0%);fill-opacity:1;" d="M 13.132812 12.679688 C 12.46875 14.207031 11.511719 15.398438 10.550781 16.785156 C 10.34375 15.726562 12.109375 12.984375 13.132812 12.679688 Z M 13.132812 12.679688 "/>
<path style=" stroke:none;fill-rule:nonzero;fill:rgb(0%,0%,0%);fill-opacity:1;" d="M 11.234375 12.371094 C 10.613281 13.320312 9.988281 14.269531 9.367188 15.222656 C 9.269531 15.164062 9.167969 15.101562 9.066406 15.042969 C 9.554688 13.996094 10.261719 13.097656 11.054688 12.25 C 11.113281 12.292969 11.171875 12.332031 11.234375 12.371094 Z M 11.234375 12.371094 "/>
</g>
</svg>
