<?xml version="1.0" encoding="UTF-8"?>
<svg xmlns="http://www.w3.org/2000/svg" xmlns:xlink="http://www.w3.org/1999/xlink" width="45px" height="45px" viewBox="0 0 45 45" version="1.1">
<g id="surface1">
<path style=" stroke:none;fill-rule:nonzero;fill:rgb(0%,0%,0%);fill-opacity:1;" d="M 42.507812 11.617188 L 17.503906 11.617188 C 16.128906 11.617188 15.003906 10.492188 15.003906 9.117188 L 15.003906 6.617188 C 15.003906 5.242188 13.878906 4.117188 12.503906 4.117188 L 2.5 4.117188 C 1.125 4.117188 0 5.242188 0 6.617188 L 0 36.625 C 0 38 1.125 39.125 2.5 39.125 L 25.488281 39.125 C 23.847656 37.277344 22.839844 34.859375 22.839844 32.203125 C 22.839844 26.449219 27.519531 21.769531 33.273438 21.769531 C 39.027344 21.769531 43.707031 26.449219 43.707031 32.203125 C 43.707031 34.859375 42.699219 37.28125 41.058594 39.125 L 42.515625 39.125 C 43.886719 39.125 45.011719 38 45.011719 36.625 L 45.011719 14.121094 C 45.011719 12.746094 43.886719 11.617188 42.507812 11.617188 Z M 42.507812 11.617188 "/>
<path style=" stroke:none;fill-rule:nonzero;fill:rgb(0%,0%,0%);fill-opacity:1;" d="M 33.269531 23.507812 C 28.472656 23.507812 24.578125 27.398438 24.578125 32.203125 C 24.578125 37.003906 28.472656 40.898438 33.269531 40.898438 C 38.074219 40.898438 41.964844 37.003906 41.964844 32.203125 C 41.964844 27.398438 38.074219 23.507812 33.269531 23.507812 Z M 37.617188 33.503906 L 34.574219 33.503906 L 34.574219 36.546875 L 31.96875 36.546875 L 31.96875 33.503906 L 28.925781 33.503906 L 28.925781 30.898438 L 31.96875 30.898438 L 31.96875 27.855469 L 34.574219 27.855469 L 34.574219 30.898438 L 37.617188 30.898438 Z M 37.617188 33.503906 "/>
</g>
</svg>
