<?xml version="1.0" encoding="UTF-8"?>
<svg xmlns="http://www.w3.org/2000/svg" xmlns:xlink="http://www.w3.org/1999/xlink" width="64px" height="64px" viewBox="0 0 64 64" version="1.1">
<g id="surface1">
<path style=" stroke:none;fill-rule:nonzero;fill:rgb(0%,0%,0%);fill-opacity:1;" d="M 32 17.644531 C 24.085938 17.644531 17.644531 24.085938 17.644531 32 C 17.644531 39.914062 24.085938 46.355469 32 46.355469 C 39.914062 46.355469 46.355469 39.914062 46.355469 32 C 46.355469 24.085938 39.914062 17.644531 32 17.644531 Z M 32 42.003906 C 26.484375 42.003906 21.996094 37.515625 21.996094 32 C 21.996094 26.484375 26.484375 21.996094 32 21.996094 C 37.515625 21.996094 42.003906 26.484375 42.003906 32 C 42.003906 37.515625 37.515625 42.003906 32 42.003906 Z M 32 42.003906 "/>
<path style=" stroke:none;fill-rule:nonzero;fill:rgb(0%,0%,0%);fill-opacity:1;" d="M 32 24.441406 C 27.832031 24.441406 24.441406 27.832031 24.441406 32 C 24.441406 36.167969 27.832031 39.558594 32 39.558594 C 36.167969 39.558594 39.558594 36.167969 39.558594 32 C 39.558594 27.832031 36.167969 24.441406 32 24.441406 Z M 32 35.207031 C 30.230469 35.207031 28.792969 33.769531 28.792969 32 C 28.792969 30.230469 30.230469 28.792969 32 28.792969 C 33.769531 28.792969 35.207031 30.230469 35.207031 32 C 35.207031 33.769531 33.769531 35.207031 32 35.207031 Z M 32 35.207031 "/>
<path style=" stroke:none;fill-rule:nonzero;fill:rgb(0%,0%,0%);fill-opacity:1;" d="M 62.230469 39.289062 L 58.304688 37.023438 C 58.621094 35.375 58.777344 33.691406 58.777344 32 C 58.777344 30.308594 58.621094 28.625 58.304688 26.976562 L 62.230469 24.710938 C 62.730469 24.421875 63.09375 23.945312 63.242188 23.390625 C 63.394531 22.832031 63.316406 22.238281 63.027344 21.738281 L 56.398438 10.261719 C 55.796875 9.21875 54.46875 8.863281 53.429688 9.464844 L 49.5 11.730469 C 46.941406 9.523438 43.980469 7.8125 40.800781 6.703125 L 40.800781 2.175781 C 40.800781 0.972656 39.828125 0 38.628906 0 L 25.371094 0 C 24.171875 0 23.199219 0.972656 23.199219 2.175781 L 23.199219 6.703125 C 20.019531 7.8125 17.058594 9.523438 14.5 11.734375 L 10.570312 9.464844 C 9.53125 8.863281 8.203125 9.21875 7.601562 10.261719 L 0.972656 21.738281 C 0.683594 22.238281 0.605469 22.832031 0.757812 23.390625 C 0.90625 23.949219 1.269531 24.421875 1.769531 24.710938 L 5.695312 26.976562 C 5.378906 28.625 5.222656 30.308594 5.222656 32 C 5.222656 33.691406 5.378906 35.375 5.695312 37.023438 L 1.769531 39.289062 C 1.269531 39.578125 0.90625 40.054688 0.757812 40.609375 C 0.605469 41.167969 0.683594 41.761719 0.972656 42.261719 L 7.601562 53.738281 C 8.203125 54.78125 9.53125 55.136719 10.570312 54.535156 L 14.5 52.269531 C 17.058594 54.476562 20.019531 56.1875 23.199219 57.296875 L 23.199219 61.824219 C 23.199219 63.027344 24.171875 64 25.371094 64 L 38.628906 64 C 39.828125 64 40.800781 63.027344 40.800781 61.824219 L 40.800781 57.296875 C 43.980469 56.1875 46.941406 54.476562 49.5 52.269531 L 53.429688 54.535156 C 54.46875 55.136719 55.796875 54.78125 56.398438 53.738281 L 63.027344 42.261719 C 63.316406 41.761719 63.394531 41.167969 63.242188 40.609375 C 63.09375 40.050781 62.730469 39.578125 62.230469 39.289062 Z M 53.730469 26.429688 C 54.195312 28.238281 54.429688 30.113281 54.429688 32 C 54.429688 33.886719 54.195312 35.761719 53.730469 37.570312 C 53.488281 38.515625 53.90625 39.507812 54.75 39.992188 L 58.171875 41.96875 L 53.71875 49.679688 L 50.292969 47.703125 C 49.445312 47.214844 48.378906 47.347656 47.683594 48.03125 C 44.988281 50.667969 41.652344 52.597656 38.042969 53.605469 C 37.101562 53.867188 36.453125 54.722656 36.453125 55.699219 L 36.453125 59.648438 L 27.546875 59.648438 L 27.546875 55.699219 C 27.546875 54.722656 26.898438 53.867188 25.957031 53.605469 C 22.347656 52.597656 19.015625 50.667969 16.316406 48.03125 C 15.621094 47.347656 14.554688 47.214844 13.707031 47.703125 L 10.28125 49.679688 L 5.828125 41.96875 L 9.25 39.992188 C 10.09375 39.507812 10.511719 38.515625 10.269531 37.570312 C 9.808594 35.761719 9.570312 33.886719 9.570312 32 C 9.570312 30.113281 9.808594 28.238281 10.269531 26.429688 C 10.511719 25.484375 10.09375 24.492188 9.25 24.007812 L 5.828125 22.03125 L 10.28125 14.320312 L 13.707031 16.296875 C 14.554688 16.785156 15.621094 16.652344 16.316406 15.96875 C 19.015625 13.332031 22.347656 11.402344 25.957031 10.394531 C 26.898438 10.132812 27.546875 9.277344 27.546875 8.300781 L 27.546875 4.351562 L 36.453125 4.351562 L 36.453125 8.300781 C 36.453125 9.277344 37.101562 10.132812 38.042969 10.394531 C 41.652344 11.402344 44.988281 13.332031 47.683594 15.96875 C 48.378906 16.652344 49.445312 16.785156 50.292969 16.296875 L 53.71875 14.320312 L 58.171875 22.03125 L 54.75 24.007812 C 53.90625 24.492188 53.488281 25.484375 53.730469 26.429688 Z M 53.730469 26.429688 "/>
</g>
</svg>
