<?xml version="1.0" encoding="UTF-8"?>
<svg xmlns="http://www.w3.org/2000/svg" xmlns:xlink="http://www.w3.org/1999/xlink" width="64px" height="64px" viewBox="0 0 64 64" version="1.1">
<g id="surface1">
<path style=" stroke:none;fill-rule:nonzero;fill:rgb(0%,0%,0%);fill-opacity:1;" d="M 16.988281 57.753906 C 16.554688 55.246094 14.363281 53.332031 11.734375 53.332031 C 9.632812 53.332031 7.8125 54.554688 6.945312 56.320312 C 6.773438 56.199219 6.589844 56.089844 6.398438 55.992188 L 6.398438 38.398438 C 6.398438 37.8125 5.921875 37.332031 5.332031 37.332031 C 4.746094 37.332031 4.265625 37.8125 4.265625 38.398438 L 4.265625 55.464844 C 1.914062 55.464844 0 57.378906 0 59.734375 C 0 62.085938 1.914062 64 4.265625 64 L 16 64 C 17.765625 64 19.199219 62.5625 19.199219 60.800781 C 19.199219 59.378906 18.269531 58.175781 16.988281 57.753906 Z M 16 61.867188 L 4.265625 61.867188 C 3.089844 61.867188 2.132812 60.910156 2.132812 59.734375 C 2.132812 58.554688 3.089844 57.601562 4.265625 57.601562 C 5.261719 57.601562 6.144531 58.179688 6.46875 59.039062 C 6.648438 59.523438 7.148438 59.808594 7.65625 59.714844 C 8.164062 59.625 8.535156 59.183594 8.535156 58.667969 C 8.535156 56.902344 9.96875 55.464844 11.734375 55.464844 C 13.496094 55.464844 14.933594 56.902344 14.933594 58.667969 C 14.933594 59.253906 15.410156 59.734375 16 59.734375 C 16.585938 59.734375 17.066406 60.210938 17.066406 60.800781 C 17.066406 61.386719 16.585938 61.867188 16 61.867188 Z M 16 61.867188 "/>
<path style=" stroke:none;fill-rule:nonzero;fill:rgb(0%,0%,0%);fill-opacity:1;" d="M 62.933594 8.535156 L 42.667969 8.535156 C 42.078125 8.535156 41.601562 9.011719 41.601562 9.601562 C 41.601562 10.1875 42.078125 10.667969 42.667969 10.667969 L 61.867188 10.667969 L 61.867188 33.691406 L 32.753906 4.578125 C 32.546875 4.371094 32.269531 4.265625 31.996094 4.265625 C 31.722656 4.265625 31.449219 4.371094 31.238281 4.578125 L 2.132812 33.691406 L 2.132812 10.667969 L 13.867188 10.667969 C 14.457031 10.667969 14.933594 10.1875 14.933594 9.601562 L 14.933594 5.332031 C 14.933594 4.746094 14.457031 4.265625 13.867188 4.265625 L 12.800781 4.265625 L 12.800781 2.132812 L 19.199219 2.132812 L 19.199219 4.265625 L 18.132812 4.265625 C 17.542969 4.265625 17.066406 4.746094 17.066406 5.332031 L 17.066406 9.601562 C 17.066406 10.1875 17.542969 10.667969 18.132812 10.667969 L 21.332031 10.667969 C 21.921875 10.667969 22.398438 10.1875 22.398438 9.601562 C 22.398438 9.011719 21.921875 8.535156 21.332031 8.535156 L 19.199219 8.535156 L 19.199219 6.398438 L 20.265625 6.398438 C 20.855469 6.398438 21.332031 5.921875 21.332031 5.332031 L 21.332031 1.066406 C 21.332031 0.476562 20.855469 0 20.265625 0 L 11.734375 0 C 11.144531 0 10.667969 0.476562 10.667969 1.066406 L 10.667969 5.332031 C 10.667969 5.921875 11.144531 6.398438 11.734375 6.398438 L 12.800781 6.398438 L 12.800781 8.535156 L 1.066406 8.535156 C 0.785156 8.535156 0.511719 8.644531 0.3125 8.847656 C 0.113281 9.046875 0 9.316406 0 9.601562 L 0.00390625 36.265625 C 0.00390625 36.699219 0.265625 37.085938 0.664062 37.253906 C 0.796875 37.304688 0.933594 37.332031 1.070312 37.332031 C 1.347656 37.332031 1.621094 37.226562 1.824219 37.019531 L 31.996094 6.839844 L 62.179688 37.019531 C 62.382812 37.222656 62.65625 37.332031 62.933594 37.332031 C 63.070312 37.332031 63.210938 37.304688 63.339844 37.253906 C 63.738281 37.085938 64 36.699219 64 36.265625 L 64 9.601562 C 64 9.011719 63.523438 8.535156 62.933594 8.535156 Z M 62.933594 8.535156 "/>
<path style=" stroke:none;fill-rule:nonzero;fill:rgb(0%,0%,0%);fill-opacity:1;" d="M 59.734375 55.464844 L 59.734375 38.398438 C 59.734375 37.8125 59.253906 37.332031 58.667969 37.332031 C 58.078125 37.332031 57.601562 37.8125 57.601562 38.398438 L 57.601562 55.992188 C 57.410156 56.089844 57.226562 56.199219 57.054688 56.320312 C 56.1875 54.554688 54.367188 53.332031 52.265625 53.332031 C 49.636719 53.332031 47.445312 55.246094 47.011719 57.753906 C 45.730469 58.175781 44.800781 59.378906 44.800781 60.800781 C 44.800781 61.175781 44.875 61.53125 44.996094 61.867188 L 26.667969 61.867188 C 26.078125 61.867188 25.601562 62.34375 25.601562 62.933594 C 25.601562 63.523438 26.078125 64 26.667969 64 L 59.734375 64 C 62.085938 64 64 62.085938 64 59.734375 C 64 57.378906 62.085938 55.464844 59.734375 55.464844 Z M 59.734375 61.867188 L 48 61.867188 C 47.414062 61.867188 46.933594 61.386719 46.933594 60.800781 C 46.933594 60.210938 47.414062 59.734375 48 59.734375 C 48.589844 59.734375 49.066406 59.253906 49.066406 58.667969 C 49.066406 56.902344 50.503906 55.464844 52.265625 55.464844 C 54.03125 55.464844 55.464844 56.902344 55.464844 58.667969 C 55.464844 59.183594 55.835938 59.625 56.34375 59.714844 C 56.851562 59.808594 57.351562 59.523438 57.53125 59.039062 C 57.855469 58.179688 58.738281 57.601562 59.734375 57.601562 C 60.910156 57.601562 61.867188 58.558594 61.867188 59.734375 C 61.867188 60.910156 60.910156 61.867188 59.734375 61.867188 Z M 59.734375 61.867188 "/>
<path style=" stroke:none;fill-rule:nonzero;fill:rgb(0%,0%,0%);fill-opacity:1;" d="M 36.265625 21.332031 C 36.265625 18.980469 34.351562 17.066406 32 17.066406 C 29.648438 17.066406 27.734375 18.980469 27.734375 21.332031 C 27.734375 23.6875 29.648438 25.601562 32 25.601562 C 34.351562 25.601562 36.265625 23.6875 36.265625 21.332031 Z M 29.867188 21.332031 C 29.867188 20.15625 30.824219 19.199219 32 19.199219 C 33.175781 19.199219 34.132812 20.15625 34.132812 21.332031 C 34.132812 22.511719 33.175781 23.464844 32 23.464844 C 30.824219 23.464844 29.867188 22.511719 29.867188 21.332031 Z M 29.867188 21.332031 "/>
<path style=" stroke:none;fill-rule:nonzero;fill:rgb(0%,0%,0%);fill-opacity:1;" d="M 52.265625 36.265625 L 43.734375 36.265625 C 43.144531 36.265625 42.667969 36.746094 42.667969 37.332031 L 42.667969 49.066406 L 41.601562 49.066406 C 41.011719 49.066406 40.535156 49.542969 40.535156 50.132812 C 40.535156 50.722656 41.011719 51.199219 41.601562 51.199219 L 54.398438 51.199219 C 54.988281 51.199219 55.464844 50.722656 55.464844 50.132812 C 55.464844 49.542969 54.988281 49.066406 54.398438 49.066406 L 53.332031 49.066406 L 53.332031 37.332031 C 53.332031 36.746094 52.855469 36.265625 52.265625 36.265625 Z M 51.199219 49.066406 L 44.800781 49.066406 L 44.800781 44.800781 L 51.199219 44.800781 Z M 51.199219 42.667969 L 44.800781 42.667969 L 44.800781 38.398438 L 51.199219 38.398438 Z M 51.199219 42.667969 "/>
<path style=" stroke:none;fill-rule:nonzero;fill:rgb(0%,0%,0%);fill-opacity:1;" d="M 42.667969 58.667969 C 42.667969 58.078125 42.1875 57.601562 41.601562 57.601562 L 38.398438 57.601562 L 38.398438 37.332031 C 38.398438 36.746094 37.921875 36.265625 37.332031 36.265625 L 26.667969 36.265625 C 26.078125 36.265625 25.601562 36.746094 25.601562 37.332031 L 25.601562 57.601562 L 22.398438 57.601562 C 21.8125 57.601562 21.332031 58.078125 21.332031 58.667969 L 21.332031 62.933594 C 21.332031 63.523438 21.8125 64 22.398438 64 C 22.988281 64 23.464844 63.523438 23.464844 62.933594 L 23.464844 59.734375 L 41.601562 59.734375 C 42.1875 59.734375 42.667969 59.253906 42.667969 58.667969 Z M 36.265625 46.933594 L 35.199219 46.933594 C 34.609375 46.933594 34.132812 47.410156 34.132812 48 C 34.132812 48.589844 34.609375 49.066406 35.199219 49.066406 L 36.265625 49.066406 L 36.265625 57.601562 L 27.734375 57.601562 L 27.734375 38.398438 L 36.265625 38.398438 Z M 36.265625 46.933594 "/>
<path style=" stroke:none;fill-rule:nonzero;fill:rgb(0%,0%,0%);fill-opacity:1;" d="M 20.265625 36.265625 L 11.734375 36.265625 C 11.144531 36.265625 10.667969 36.746094 10.667969 37.332031 L 10.667969 49.066406 L 9.601562 49.066406 C 9.011719 49.066406 8.535156 49.542969 8.535156 50.132812 C 8.535156 50.722656 9.011719 51.199219 9.601562 51.199219 L 22.398438 51.199219 C 22.988281 51.199219 23.464844 50.722656 23.464844 50.132812 C 23.464844 49.542969 22.988281 49.066406 22.398438 49.066406 L 21.332031 49.066406 L 21.332031 37.332031 C 21.332031 36.746094 20.855469 36.265625 20.265625 36.265625 Z M 19.199219 49.066406 L 12.800781 49.066406 L 12.800781 44.800781 L 19.199219 44.800781 Z M 19.199219 42.667969 L 12.800781 42.667969 L 12.800781 38.398438 L 19.199219 38.398438 Z M 19.199219 42.667969 "/>
</g>
</svg>
