<?xml version="1.0" encoding="UTF-8"?>
<svg xmlns="http://www.w3.org/2000/svg" xmlns:xlink="http://www.w3.org/1999/xlink" width="64px" height="64px" viewBox="0 0 64 64" version="1.1">
<g id="surface1">
<path style=" stroke:none;fill-rule:nonzero;fill:rgb(0%,0%,0%);fill-opacity:1;" d="M 7.886719 7.886719 C 3.539062 7.886719 0 11.425781 0 15.773438 C 0 20.121094 3.539062 23.65625 7.886719 23.65625 C 12.234375 23.65625 15.769531 20.121094 15.769531 15.773438 C 15.769531 11.425781 12.234375 7.886719 7.886719 7.886719 Z M 7.886719 20.613281 C 5.214844 20.613281 3.042969 18.441406 3.042969 15.773438 C 3.042969 13.101562 5.214844 10.929688 7.886719 10.929688 C 10.554688 10.929688 12.726562 13.101562 12.726562 15.773438 C 12.726562 18.441406 10.554688 20.613281 7.886719 20.613281 Z M 7.886719 20.613281 "/>
<path style=" stroke:none;fill-rule:nonzero;fill:rgb(0%,0%,0%);fill-opacity:1;" d="M 7.886719 26.703125 C 3.8125 26.703125 0.5 30.015625 0.5 34.085938 L 0.5 54.59375 C 0.5 55.433594 1.183594 56.113281 2.023438 56.113281 L 13.746094 56.113281 C 14.589844 56.113281 15.269531 55.433594 15.269531 54.59375 L 15.269531 34.085938 C 15.269531 30.015625 11.957031 26.703125 7.886719 26.703125 Z M 12.226562 53.070312 L 3.542969 53.070312 L 3.542969 34.085938 C 3.542969 31.691406 5.492188 29.746094 7.886719 29.746094 C 10.28125 29.746094 12.226562 31.691406 12.226562 34.085938 Z M 12.226562 53.070312 "/>
<path style=" stroke:none;fill-rule:nonzero;fill:rgb(0%,0%,0%);fill-opacity:1;" d="M 32 7.886719 C 27.652344 7.886719 24.113281 11.425781 24.113281 15.773438 C 24.113281 20.121094 27.652344 23.65625 32 23.65625 C 36.347656 23.65625 39.886719 20.121094 39.886719 15.773438 C 39.886719 11.425781 36.347656 7.886719 32 7.886719 Z M 32 20.613281 C 29.328125 20.613281 27.15625 18.441406 27.15625 15.773438 C 27.15625 13.101562 29.328125 10.929688 32 10.929688 C 34.671875 10.929688 36.84375 13.101562 36.84375 15.773438 C 36.84375 18.441406 34.671875 20.613281 32 20.613281 Z M 32 20.613281 "/>
<path style=" stroke:none;fill-rule:nonzero;fill:rgb(0%,0%,0%);fill-opacity:1;" d="M 32 26.703125 C 27.929688 26.703125 24.617188 30.015625 24.617188 34.085938 L 24.617188 54.59375 C 24.617188 55.433594 25.296875 56.113281 26.136719 56.113281 L 37.863281 56.113281 C 38.703125 56.113281 39.382812 55.433594 39.382812 54.59375 L 39.382812 34.085938 C 39.382812 30.015625 36.070312 26.703125 32 26.703125 Z M 36.339844 53.070312 L 27.660156 53.070312 L 27.660156 34.085938 C 27.660156 31.691406 29.605469 29.746094 32 29.746094 C 34.394531 29.746094 36.339844 31.691406 36.339844 34.085938 Z M 36.339844 53.070312 "/>
<path style=" stroke:none;fill-rule:nonzero;fill:rgb(0%,0%,0%);fill-opacity:1;" d="M 56.113281 23.65625 C 60.460938 23.65625 64 20.121094 64 15.773438 C 64 11.425781 60.460938 7.886719 56.113281 7.886719 C 51.765625 7.886719 48.230469 11.425781 48.230469 15.773438 C 48.230469 20.121094 51.765625 23.65625 56.113281 23.65625 Z M 56.113281 10.929688 C 58.785156 10.929688 60.957031 13.101562 60.957031 15.773438 C 60.957031 18.441406 58.785156 20.613281 56.113281 20.613281 C 53.445312 20.613281 51.273438 18.441406 51.273438 15.773438 C 51.273438 13.101562 53.445312 10.929688 56.113281 10.929688 Z M 56.113281 10.929688 "/>
<path style=" stroke:none;fill-rule:nonzero;fill:rgb(0%,0%,0%);fill-opacity:1;" d="M 56.113281 26.703125 C 52.042969 26.703125 48.730469 30.015625 48.730469 34.085938 L 48.730469 54.59375 C 48.730469 55.433594 49.410156 56.113281 50.253906 56.113281 L 61.976562 56.113281 C 62.816406 56.113281 63.5 55.433594 63.5 54.59375 L 63.5 34.085938 C 63.5 30.015625 60.1875 26.703125 56.113281 26.703125 Z M 60.457031 53.070312 L 51.773438 53.070312 L 51.773438 34.085938 C 51.773438 31.691406 53.722656 29.746094 56.113281 29.746094 C 58.507812 29.746094 60.457031 31.691406 60.457031 34.085938 Z M 60.457031 53.070312 "/>
</g>
</svg>
