<?xml version="1.0" encoding="UTF-8"?>
<svg xmlns="http://www.w3.org/2000/svg" xmlns:xlink="http://www.w3.org/1999/xlink" width="64px" height="64px" viewBox="0 0 64 64" version="1.1">
<g id="surface1">
<path style=" stroke:none;fill-rule:nonzero;fill:rgb(0%,0%,0%);fill-opacity:1;" d="M 50.355469 0.777344 C 48.6875 0.765625 47.113281 1.402344 45.925781 2.570312 L 34.042969 14.246094 C 32.851562 15.417969 32.1875 16.980469 32.171875 18.648438 C 32.164062 19.667969 32.425781 20.636719 32.871094 21.519531 L 52.988281 1.40625 C 52.171875 1.015625 51.285156 0.789062 50.355469 0.777344 Z M 50.355469 0.777344 "/>
<path style=" stroke:none;fill-rule:nonzero;fill:rgb(0%,0%,0%);fill-opacity:1;" d="M 18.90625 32.097656 C 17.238281 32.082031 15.664062 32.71875 14.472656 33.890625 L 2.589844 45.566406 C 1.398438 46.738281 0.738281 48.300781 0.722656 49.96875 C 0.710938 51.019531 0.988281 52.019531 1.46875 52.925781 L 21.621094 32.769531 C 20.785156 32.355469 19.867188 32.105469 18.90625 32.097656 Z M 18.90625 32.097656 "/>
<path style=" stroke:none;fill-rule:nonzero;fill:rgb(0%,0%,0%);fill-opacity:1;" d="M 60.597656 8.589844 L 56.183594 4.097656 L 35.566406 24.714844 L 36.882812 26.050781 C 37.648438 26.832031 37.734375 28.136719 36.816406 29.039062 L 29.171875 36.960938 C 28.378906 37.742188 27.007812 37.730469 26.226562 36.9375 L 24.796875 35.484375 L 4.183594 56.097656 L 8.351562 60.34375 C 10.621094 62.652344 13.332031 63.835938 16.414062 63.863281 C 16.417969 63.863281 16.425781 63.863281 16.433594 63.863281 C 29.234375 63.953125 63.878906 29.609375 64 16.808594 C 64.027344 13.679688 62.882812 10.914062 60.597656 8.589844 Z M 60.597656 8.589844 "/>
<path style=" stroke:none;fill-rule:nonzero;fill:rgb(0%,0%,0%);fill-opacity:1;" d="M 37.015625 0.542969 C 35.34375 0.273438 33.632812 0.136719 31.929688 0.136719 C 14.324219 0.136719 0 14.460938 0 32.070312 C 0 33.917969 0.160156 35.777344 0.476562 37.589844 C 0.671875 38.710938 1.742188 39.480469 2.886719 39.28125 C 4.019531 39.082031 4.777344 38.003906 4.578125 36.871094 C 4.304688 35.296875 4.164062 33.679688 4.164062 32.070312 C 4.164062 16.757812 16.621094 4.300781 31.929688 4.300781 C 33.414062 4.300781 34.902344 4.421875 36.351562 4.652344 C 37.492188 4.839844 38.554688 4.0625 38.738281 2.929688 C 38.921875 1.792969 38.148438 0.722656 37.015625 0.542969 Z M 37.015625 0.542969 "/>
</g>
</svg>
