<?xml version="1.0" encoding="UTF-8"?>
<svg xmlns="http://www.w3.org/2000/svg" xmlns:xlink="http://www.w3.org/1999/xlink" width="64px" height="64px" viewBox="0 0 64 64" version="1.1">
<g id="surface1">
<path style=" stroke:none;fill-rule:nonzero;fill:rgb(87.058824%,86.666667%,87.843137%);fill-opacity:1;" d="M 14.828125 56.195312 L 14.828125 51.511719 L 32 51.511719 L 32 46.828125 L 14.828125 46.828125 L 14.828125 42.144531 L 32 42.144531 L 32 37.464844 L 14.828125 37.464844 L 14.828125 32.78125 L 32 32.78125 L 32 28.097656 L 14.828125 28.097656 L 14.828125 23.414062 L 32 23.414062 L 32 15.609375 L 10.144531 15.609375 L 10.144531 64 L 32 64 L 32 56.195312 Z M 14.828125 56.195312 "/>
<path style=" stroke:none;fill-rule:nonzero;fill:rgb(80.392157%,80.392157%,81.568627%);fill-opacity:1;" d="M 32 23.414062 L 39.804688 23.414062 L 39.804688 28.097656 L 32 28.097656 L 32 32.78125 L 39.804688 32.78125 L 39.804688 37.464844 L 32 37.464844 L 32 42.144531 L 39.804688 42.144531 L 39.804688 46.828125 L 32 46.828125 L 32 51.511719 L 39.804688 51.511719 L 39.804688 56.195312 L 32 56.195312 L 32 64 L 53.855469 64 L 53.855469 15.609375 L 32 15.609375 Z M 44.488281 23.414062 L 49.171875 23.414062 L 49.171875 28.097656 L 44.488281 28.097656 Z M 44.488281 32.78125 L 49.171875 32.78125 L 49.171875 37.464844 L 44.488281 37.464844 Z M 44.488281 42.144531 L 49.171875 42.144531 L 49.171875 46.828125 L 44.488281 46.828125 Z M 44.488281 51.511719 L 49.171875 51.511719 L 49.171875 56.195312 L 44.488281 56.195312 Z M 44.488281 51.511719 "/>
<path style=" stroke:none;fill-rule:nonzero;fill:rgb(67.45098%,67.058824%,69.411765%);fill-opacity:1;" d="M 44.488281 9.367188 L 44.488281 12.488281 L 19.511719 12.488281 L 19.511719 9.367188 L 10.144531 9.367188 L 10.144531 15.609375 L 53.855469 15.609375 L 53.855469 9.367188 Z M 44.488281 9.367188 "/>
<path style=" stroke:none;fill-rule:nonzero;fill:rgb(33.72549%,33.72549%,34.901961%);fill-opacity:1;" d="M 44.488281 12.488281 L 44.488281 6.242188 L 38.242188 6.242188 C 38.242188 2.796875 35.449219 0 32 0 C 28.550781 0 25.757812 2.796875 25.757812 6.242188 L 19.511719 6.242188 L 19.511719 12.488281 Z M 44.488281 12.488281 "/>
<path style=" stroke:none;fill-rule:nonzero;fill:rgb(100%,100%,100%);fill-opacity:1;" d="M 14.828125 56.195312 L 39.804688 56.195312 L 39.804688 51.511719 L 14.828125 51.511719 Z M 14.828125 56.195312 "/>
<path style=" stroke:none;fill-rule:nonzero;fill:rgb(100%,100%,100%);fill-opacity:1;" d="M 14.828125 37.464844 L 39.804688 37.464844 L 39.804688 32.78125 L 14.828125 32.78125 Z M 14.828125 37.464844 "/>
<path style=" stroke:none;fill-rule:nonzero;fill:rgb(100%,100%,100%);fill-opacity:1;" d="M 14.828125 28.097656 L 39.804688 28.097656 L 39.804688 23.414062 L 14.828125 23.414062 Z M 14.828125 28.097656 "/>
<path style=" stroke:none;fill-rule:nonzero;fill:rgb(100%,100%,100%);fill-opacity:1;" d="M 14.828125 46.828125 L 39.804688 46.828125 L 39.804688 42.144531 L 14.828125 42.144531 Z M 14.828125 46.828125 "/>
<path style=" stroke:none;fill-rule:nonzero;fill:rgb(100%,100%,100%);fill-opacity:1;" d="M 44.488281 51.511719 L 49.171875 51.511719 L 49.171875 56.195312 L 44.488281 56.195312 Z M 44.488281 51.511719 "/>
<path style=" stroke:none;fill-rule:nonzero;fill:rgb(84.705882%,0%,15.294118%);fill-opacity:1;" d="M 44.488281 32.78125 L 49.171875 32.78125 L 49.171875 37.464844 L 44.488281 37.464844 Z M 44.488281 32.78125 "/>
<path style=" stroke:none;fill-rule:nonzero;fill:rgb(39.215686%,76.470588%,49.019608%);fill-opacity:1;" d="M 44.488281 23.414062 L 49.171875 23.414062 L 49.171875 28.097656 L 44.488281 28.097656 Z M 44.488281 23.414062 "/>
<path style=" stroke:none;fill-rule:nonzero;fill:rgb(100%,100%,100%);fill-opacity:1;" d="M 44.488281 42.144531 L 49.171875 42.144531 L 49.171875 46.828125 L 44.488281 46.828125 Z M 44.488281 42.144531 "/>
</g>
</svg>
